<svg width="21" height="20" viewBox="0 0 21 20" fill="none" xmlns="http://www.w3.org/2000/svg">
<g id="Chevron-down">
<path id="Shape" fill-rule="evenodd" clip-rule="evenodd" d="M15.2 6.25C14.85 6.25 14.5375 6.3875 14.3125 6.6125L10.2 10.7375L6.08745 6.6125C5.86245 6.3875 5.54995 6.25 5.19995 6.25C4.51245 6.25 3.94995 6.8125 3.94995 7.5C3.94995 7.85 4.08745 8.1625 4.31245 8.3875L9.31245 13.3875C9.53745 13.6125 9.84995 13.75 10.2 13.75C10.55 13.75 10.8625 13.6125 11.0875 13.3875L16.0875 8.3875C16.3125 8.1625 16.45 7.85 16.45 7.5C16.45 6.8125 15.8875 6.25 15.2 6.25Z" fill="#05051E"/>
</g>
</svg>
