<svg width="16" height="16" viewBox="0 0 16 16" fill="none" xmlns="http://www.w3.org/2000/svg">
<g id="Clipboard">
<path id="Shape" fill-rule="evenodd" clip-rule="evenodd" d="M10.5195 2C10.5195 1.45 10.0695 1 9.51953 1H9.73953C9.39953 0.4 8.75953 0 8.01953 0C7.27953 0 6.63953 0.4 6.29953 1H6.51953C5.96953 1 5.51953 1.45 5.51953 2V3H10.5195V2ZM12.5195 2H11.5195V4H4.51953V2H3.51953C2.96953 2 2.51953 2.45 2.51953 3V15C2.51953 15.55 2.96953 16 3.51953 16H12.5195C13.0695 16 13.5195 15.55 13.5195 15V3C13.5195 2.45 13.0695 2 12.5195 2Z" fill="#9090A4"/>
</g>
</svg>
