<svg width="15" height="14" viewBox="0 0 15 14" fill="none" xmlns="http://www.w3.org/2000/svg">
<g id="Cross">
<path id="Shape" fill-rule="evenodd" clip-rule="evenodd" d="M8.63365 7L11.5124 4.12125C11.6787 3.96375 11.7749 3.745 11.7749 3.5C11.7749 3.01875 11.3812 2.625 10.8999 2.625C10.6549 2.625 10.4362 2.72125 10.2787 2.87875L7.3999 5.76625L4.52115 2.87875C4.36365 2.72125 4.1449 2.625 3.8999 2.625C3.41865 2.625 3.0249 3.01875 3.0249 3.5C3.0249 3.745 3.12115 3.96375 3.27865 4.12125L6.16615 7L3.2874 9.87875C3.12115 10.0363 3.0249 10.255 3.0249 10.5C3.0249 10.9812 3.41865 11.375 3.8999 11.375C4.1449 11.375 4.36365 11.2788 4.52115 11.1213L7.3999 8.23375L10.2787 11.1125C10.4362 11.2787 10.6549 11.375 10.8999 11.375C11.3812 11.375 11.7749 10.9812 11.7749 10.5C11.7749 10.255 11.6787 10.0363 11.5212 9.87875L8.63365 7Z" fill="#0660C8"/>
</g>
</svg>
