<svg width="166" height="14" viewBox="0 0 166 14" fill="none" xmlns="http://www.w3.org/2000/svg">
<g id="Dod logo" clip-path="url(#clip0_3_19360)">
<g id="Group">
<path id="Vector" d="M82.8349 8.16959C82.8349 9.95209 82.3946 11.4004 81.5509 12.4402C80.7071 13.4799 79.5699 13.9998 78.1025 13.9998C76.6718 13.9998 75.4978 13.4799 74.6541 12.4402C73.8103 11.4004 73.3701 9.98922 73.3701 8.16959C73.3701 6.34997 73.8103 4.93883 74.6541 3.89904C75.4978 2.85925 76.6718 2.33936 78.1025 2.33936C79.5332 2.33936 80.6704 2.85925 81.5509 3.89904C82.4313 4.93883 82.8349 6.3871 82.8349 8.16959ZM81.2207 8.16959C81.2207 6.68418 80.9639 5.57013 80.4136 4.86455C79.8634 4.15898 79.1297 3.78763 78.1392 3.78763C77.1487 3.78763 76.415 4.15898 75.8647 4.86455C75.3144 5.57013 75.0576 6.68418 75.0576 8.16959C75.0576 9.61787 75.3144 10.6948 75.8647 11.4375C76.415 12.1802 77.1487 12.5516 78.1392 12.5516C79.093 12.5516 79.8634 12.1802 80.4136 11.4375C80.9272 10.7319 81.2207 9.61787 81.2207 8.16959Z" fill="white"/>
<path id="Vector_2" d="M88.3374 2.37646C90.5752 2.37646 92.4095 3.60193 92.4095 6.75843C92.4095 7.09265 92.4095 13.7027 92.4095 13.7027H90.7953V8.0953C90.7953 6.64702 90.7586 5.53296 90.1717 4.82739C89.5847 4.15896 88.9244 3.97328 87.9339 4.01042C87.2002 4.04755 86.3931 4.34463 86.0263 4.49318V13.7027H84.4121V2.67355H86.0263V2.93349C86.4298 2.71068 87.3102 2.37646 88.3374 2.37646Z" fill="white"/>
<path id="Vector_3" d="M101.36 8.28117C101.36 6.64721 101.764 5.12467 102.608 4.08488C103.488 3.00796 104.919 2.37666 106.826 2.37666C107.34 2.37666 107.523 2.37666 108.257 2.37666V0H109.871V13.7029H108.257V13.443C107.23 13.8886 106.313 13.9629 105.689 13.9629C104.295 13.9629 103.011 13.3687 102.351 12.3289C101.654 11.2891 101.36 10.2122 101.36 8.28117ZM103.048 8.35544C103.048 9.80371 103.231 10.435 103.635 11.1406C104.112 11.9947 105.139 12.2918 105.946 12.2918C106.973 12.2918 107.744 12.0318 108.294 11.809V4.01061C107.634 4.01061 107.12 4.01061 106.46 4.04775C105.432 4.12202 104.589 4.38196 104.002 5.0504C103.378 5.75597 103.048 6.87003 103.048 8.35544Z" fill="white"/>
<path id="Vector_4" d="M120.914 8.31808H113.026C113.026 8.98652 113.173 9.69209 113.356 10.212C113.833 11.4003 114.971 12.5144 116.988 12.5144C117.722 12.5144 118.419 12.3658 119.153 12.0316C120.033 11.6603 120.693 11.2146 120.693 11.2146V12.9971C120.106 13.2942 119.483 13.517 118.896 13.7027C118.272 13.8884 117.649 13.9626 116.952 13.9626C115.227 13.9626 113.87 13.4799 112.916 12.4772C111.962 11.4746 111.449 10.1006 111.412 8.28095C111.375 6.46132 111.852 5.05018 112.769 4.01039C113.723 2.9706 114.897 2.41357 116.548 2.41357C117.869 2.41357 119.006 2.89633 119.74 3.78758C120.51 4.64169 120.914 5.83002 120.914 7.42684V8.31808ZM119.373 7.01835C119.373 5.97856 119.079 5.23585 118.602 4.67883C118.125 4.1218 117.428 3.78758 116.438 3.78758C115.447 3.78758 114.677 4.1218 114.09 4.7531C113.503 5.3844 113.1 6.1271 113.026 7.05548H119.373V7.01835Z" fill="white"/>
<path id="Vector_5" d="M135.405 3.41625C136.028 4.08469 136.285 4.86453 136.285 6.01572V13.7027H134.671V6.79556C134.671 6.34994 134.671 5.94145 134.598 5.5701C134.488 4.97593 134.157 3.82474 132.507 3.82474C131.369 3.82474 130.526 4.23323 130.085 4.49318L129.902 4.60458C130.049 5.01307 130.085 5.49583 130.085 6.05286V6.90697V13.7027H128.471V6.79556C128.471 6.34994 128.471 5.94145 128.398 5.5701C128.288 4.97593 127.958 3.82474 126.307 3.82474C125.17 3.82474 124.326 4.23323 123.886 4.49318V13.7399H122.271V2.63641H123.886V2.89636C124.95 2.4136 125.83 2.37646 126.38 2.37646C127.701 2.37646 128.545 2.78495 129.132 3.34198C129.425 3.19344 129.755 3.00776 130.049 2.89636C131.186 2.4136 132.03 2.37646 132.58 2.37646C133.974 2.4136 134.855 2.82209 135.405 3.41625Z" fill="white"/>
<path id="Vector_6" d="M146.117 13.7027H144.503V13.5171C144.209 13.6285 143.439 13.9627 142.081 13.9627C141.421 13.9627 140.027 13.8513 139.037 12.8858C138.56 12.4401 137.973 11.5117 137.973 10.3606C137.973 9.39503 138.119 8.91227 138.45 8.31811C138.78 7.72395 139.22 7.20405 139.807 6.86983C141.274 5.97859 143.145 6.01572 144.172 6.01572C144.283 6.01572 144.356 6.01572 144.539 6.01572V5.60723C144.539 5.23588 144.466 4.9388 144.356 4.67885C144.209 4.45604 144.026 4.23323 143.806 4.12182C143.585 3.97328 143.292 3.89901 142.999 3.86188C142.668 3.82474 142.338 3.78761 142.008 3.78761C141.568 3.78761 140.981 3.86188 140.467 3.97328C139.623 4.15896 138.89 4.41891 138.89 4.41891V2.82209C139.22 2.74782 139.66 2.63641 140.247 2.52501C140.834 2.4136 141.421 2.37646 142.008 2.37646C142.668 2.37646 143.292 2.45074 143.769 2.56214C144.282 2.67355 144.686 2.85922 145.053 3.11917C145.42 3.37912 145.677 3.71334 145.86 4.15896C146.043 4.56745 146.153 5.08734 146.153 5.71864L146.117 13.7027ZM144.503 7.42686C143.989 7.42686 143.219 7.42686 142.595 7.50113C141.898 7.57541 141.458 7.64968 140.944 7.90962C140.504 8.13243 139.623 8.76373 139.623 10.1006C139.623 11.846 140.981 12.3659 141.641 12.4401C142.852 12.5887 144.099 12.2173 144.503 11.8088V7.42686Z" fill="white"/>
<path id="Vector_7" d="M151.839 2.37646C154.077 2.37646 155.911 3.60193 155.911 6.75843C155.911 7.09265 155.911 13.7027 155.911 13.7027H154.297V8.0953C154.297 6.64702 154.261 5.53296 153.674 4.82739C153.087 4.15896 152.426 3.97328 151.436 4.01042C150.702 4.04755 149.895 4.34463 149.528 4.49318V13.7027H147.914V2.67355H149.528V2.93349C149.968 2.71068 150.812 2.37646 151.839 2.37646Z" fill="white"/>
<path id="Vector_8" d="M157.452 8.28117C157.452 6.64721 157.856 5.12467 158.699 4.08488C159.58 3.00796 160.974 2.37666 162.918 2.37666C163.432 2.37666 163.615 2.37666 164.349 2.37666V0H165.963V13.7029H164.349V13.443C163.322 13.8886 162.405 13.9629 161.781 13.9629C160.387 13.9629 159.103 13.3687 158.443 12.3289C157.746 11.2891 157.452 10.2122 157.452 8.28117ZM159.14 8.35544C159.14 9.80371 159.323 10.435 159.727 11.1406C160.204 11.9947 161.231 12.2918 162.038 12.2918C163.065 12.2918 163.835 12.0318 164.386 11.809V4.01061C163.725 4.01061 163.212 4.01061 162.551 4.04775C161.524 4.12202 160.68 4.38196 160.093 5.0504C159.47 5.75597 159.14 6.87003 159.14 8.35544Z" fill="white"/>
</g>
<g id="Group_2">
<path id="Vector_9" d="M6.78674 0.333984V2.67351H5.31934C0.917127 2.67351 0 5.97855 0 8.3552C0 10.1006 0.513591 11.6231 1.4674 12.6258C2.27447 13.4799 3.37503 13.9626 4.62232 13.9626C5.46608 13.9626 6.16309 13.8141 6.78674 13.4799V13.7027H9.68486V0.333984H6.78674ZM2.75138 8.28093C2.75138 7.16687 3.08155 5.23584 5.1726 5.0873C5.46608 5.05016 6.19978 5.01303 6.78674 4.97589V10.8433C6.3832 11.1032 5.79624 11.2889 5.13591 11.326C4.47558 11.326 3.88862 11.1403 3.52177 10.769C3.00818 10.2862 2.75138 9.46926 2.75138 8.28093Z" fill="white"/>
<path id="Vector_10" d="M17.2424 11.3632C15.7016 11.3261 14.8579 10.5091 14.6011 9.02368H21.6079V8.91227C21.6079 7.90962 21.6079 7.05551 21.5712 6.68416C21.4612 5.42156 21.021 4.38177 20.2506 3.63906C19.4068 2.82209 18.2696 2.37646 16.8022 2.37646C15.1147 2.37646 13.7573 3.00776 12.8035 4.19609C11.9598 5.23588 11.5195 6.72129 11.5195 8.35525C11.5195 11.0661 13.0236 13.9627 17.2791 13.9627C18.8932 13.9627 20.5074 13.4428 21.3878 12.9972V10.2863C20.9109 10.5462 19.3701 11.4003 17.2424 11.3632ZM16.8022 4.86453C17.866 4.86453 18.6364 5.64437 18.7098 6.60989H14.6378C14.9312 5.5701 15.6649 4.86453 16.8022 4.86453Z" fill="white"/>
<path id="Vector_11" d="M30.3384 7.16689V13.7027H33.2365V6.7584C33.2365 3.82472 31.9159 2.41357 29.1645 2.41357C28.2107 2.41357 27.1835 2.78493 26.78 2.93347V2.71066H23.8818V13.777H26.78V5.45867C27.4036 5.05018 28.3941 4.90164 29.1645 5.08731C29.9716 5.23586 30.3384 5.75575 30.3384 7.16689Z" fill="white"/>
<path id="Vector_12" d="M57.8161 9.20915V2.67334H54.918V9.65477C54.918 12.5885 56.2386 13.9996 58.99 13.9996C59.9438 13.9996 60.971 13.6282 61.3745 13.4797V13.7025H64.2727V2.67334H61.3745V10.9545C60.7509 11.363 59.7604 11.5115 58.99 11.3259C58.2196 11.1402 57.8161 10.6574 57.8161 9.20915Z" fill="white"/>
<path id="Vector_13" d="M35.6943 0.333984V9.91489C35.6943 11.2518 35.9144 12.1801 36.3914 12.8114C36.9783 13.5913 37.8954 13.9626 39.2161 13.9626C40.28 13.9626 41.3438 13.7027 41.9308 13.517V10.8804C41.564 10.9918 40.4267 11.2146 39.7297 11.2146C39.2895 11.2146 38.996 11.1403 38.8126 10.9547C38.5558 10.6947 38.5558 10.212 38.5558 9.76634V5.0873C39.693 5.0873 41.1237 5.16157 41.9308 5.27298V2.67351H38.5558V0.333984H35.6943Z" fill="white"/>
<path id="Vector_14" d="M52.4598 8.35525C51.8728 7.53827 50.9923 7.12978 49.3415 6.79556C48.6445 6.64702 47.8374 6.53562 47.3972 6.27567C47.1771 6.16426 47.0304 5.97859 47.067 5.79291C47.067 5.60723 47.1771 5.42156 47.3972 5.31015C47.8374 5.08734 48.6078 4.97593 49.7451 5.16161C50.8823 5.38442 52.0929 5.83005 52.4964 5.97859V3.30485C51.1391 2.63641 49.9652 2.37646 48.6078 2.37646C47.3605 2.4136 46.26 2.74782 45.4896 3.34198C44.6458 3.97328 44.1689 4.90166 44.1322 5.97859C44.0589 7.79822 45.1961 8.91227 47.8007 9.43217C48.351 9.54357 49.1214 9.69211 49.4883 9.84066C49.8184 9.9892 50.0385 10.212 50.0385 10.472C50.0385 10.7319 49.8551 10.9547 49.5983 11.0661C49.1214 11.2889 48.3143 11.2518 47.8007 11.1775C46.2967 11.029 44.8659 10.472 44.3523 10.2491V12.9972C45.2328 13.4428 46.6268 13.9627 48.2777 13.9627C50.1853 13.9255 52.5331 13.3685 52.9733 10.8062C53.0834 9.87779 52.9367 9.02368 52.4598 8.35525Z" fill="white"/>
</g>
</g>
<defs>
<clipPath id="clip0_3_19360">
<rect width="166" height="14" fill="white"/>
</clipPath>
</defs>
</svg>
