<svg width="16" height="16" viewBox="0 0 16 16" fill="none" xmlns="http://www.w3.org/2000/svg">
<g id="Double-chevron-right">
<path id="Shape" fill-rule="evenodd" clip-rule="evenodd" d="M9 8C9 7.72 8.89 7.47 8.71 7.29L4.71 3.29C4.53 3.11 4.28 3 4 3C3.45 3 3 3.45 3 4C3 4.28 3.11 4.53 3.29 4.71L6.59 8L3.3 11.29C3.11 11.47 3 11.72 3 12C3 12.55 3.45 13 4 13C4.28 13 4.53 12.89 4.71 12.71L8.71 8.71C8.89 8.53 9 8.28 9 8ZM13.71 7.29L9.71 3.29C9.53 3.11 9.28 3 9 3C8.45 3 8 3.45 8 4C8 4.28 8.11 4.53 8.29 4.71L11.59 8L8.3 11.29C8.11 11.47 8 11.72 8 12C8 12.55 8.45 13 9 13C9.28 13 9.53 12.89 9.71 12.71L13.71 8.71C13.89 8.53 14 8.28 14 8C14 7.72 13.89 7.47 13.71 7.29Z" fill="#076CDF"/>
</g>
</svg>
