<svg width="16" height="16" viewBox="0 0 16 16" fill="none" xmlns="http://www.w3.org/2000/svg">
<g id="Globe">
<path id="Shape" fill-rule="evenodd" clip-rule="evenodd" d="M4.45003 7.82996C4.19003 7.82996 4.04003 8.03996 4.04003 8.28996V10.04C4.04003 10.3 4.20003 10.5 4.45003 10.5H4.74003V12.27C4.74003 12.52 4.98003 12.72 5.23003 12.72C5.48003 12.72 5.72003 12.52 5.72003 12.27V11.2H5.71003C5.97003 11.2 6.15003 11.06 6.15003 10.8V10.5H6.29003C6.55003 10.5 6.72003 10.3 6.72003 10.04V9.44996C6.72003 9.44996 6.73003 9.43996 6.72003 9.43996L5.14003 7.83996H4.45003V7.82996ZM8.50989 3.89996H8.72989C8.78989 3.89996 8.84989 3.88996 8.84989 3.82996C8.84989 3.76996 8.79989 3.75996 8.72989 3.75996H8.50989C8.44989 3.75996 8.38989 3.76996 8.38989 3.82996C8.39989 3.88996 8.44989 3.89996 8.50989 3.89996ZM6.17997 3.85001C6.24997 3.78001 6.24997 3.66001 6.17997 3.59001L5.67997 3.09001C5.60997 3.02001 5.48997 3.02001 5.41997 3.09001C5.34997 3.16001 5.34997 3.28001 5.41997 3.35001L5.91997 3.85001C5.98997 3.92001 6.10997 3.92001 6.17997 3.85001ZM9.24006 4.74008C9.31006 4.74008 9.38006 4.68008 9.38006 4.62008V4.31008C9.38006 4.24008 9.31006 4.19008 9.24006 4.19008C9.17006 4.19008 9.10006 4.25008 9.10006 4.31008V4.62008C9.10006 4.69008 9.17006 4.74008 9.24006 4.74008ZM8 0C3.58 0 0 3.58 0 8C0 12.42 3.58 16 8 16C12.42 16 16 12.42 16 8C16 3.58 12.42 0 8 0ZM8 14C4.69 14 2 11.31 2 8C2 7.45 2.1 6.93 2.23 6.43C2.24 6.43 2.25 6.43 2.26 6.43H2.34V6.9C2.34 7.1 2.52 7.27 2.73 7.27C2.76 7.27 2.81 7.26 2.84 7.25L3.62 8.02C3.7 8.1 3.82 8.1 3.9 8.02C3.98 7.94 3.98 7.82 3.9 7.74L3.15 6.96C3.15 6.94 3.19 6.92 3.19 6.9V6.78C3.19 6.62 3.28 6.56 3.44 6.42H3.9C3.99 6.42 4.07 6.41 4.14 6.37C4.15 6.37 4.16 6.37 4.16 6.37C4.18 6.36 4.19 6.35 4.21 6.34C4.22 6.33 4.22 6.33 4.23 6.33L4.25 6.31L5.84 4.73C6.02 4.55 6.02 4.27 5.84 4.09C5.66 3.91 5.37 3.94 5.19 4.12L4.89 4.46H4.32V3.98C4.32 3.97 4.37 4.03 4.37 3.89H5.01C5.13 3.89 5.23 3.8 5.23 3.68C5.23 3.56 5.13 3.47 5.01 3.47H4.1C4.28 3.32 4.44 3.16 4.64 3.03L4.65 3.02C4.86 2.88 5.1 2.77 5.33 2.65C5.48 2.58 5.62 2.5 5.77 2.44C5.94 2.37 6.12 2.33 6.3 2.27C6.48 2.22 6.65 2.15 6.83 2.11C7.21 2.04 7.6 2 8 2C8.82 2 9.59 2.17 10.3 2.46C10.35 2.48 10.4 2.51 10.46 2.54C10.71 2.65 10.94 2.78 11.17 2.93C11.42 3.09 11.66 3.27 11.88 3.48H10.6C10.6 3.48 10.6 3.45 10.59 3.45C10.55 3.45 10.5 3.45 10.46 3.48L9.95 3.99C9.89 4.05 9.89 4.16 9.95 4.22C10.01 4.28 10.12 4.28 10.18 4.22L10.6 3.78L10.61 3.76H10.86C10.86 3.9 10.79 3.85 10.79 3.88V3.95C10.79 4.17 10.64 4.32 10.43 4.32H10.05C9.86 4.32 9.67 4.53 9.67 4.72V4.89H9.57C9.45 4.89 9.37 4.95 9.37 5.07C9.37 5.13 9.37 5.32 9.37 5.32H9.14C8.97 5.32 8.84 5.43 8.84 5.6C8.84 5.77 8.97 5.86 9.14 5.86C9.21 5.86 9.28 5.89 9.33 5.75V5.75L9.37 5.76L9.86 5.3H10.03L10.42 5.67C10.45 5.7 10.5 5.69 10.54 5.66C10.57 5.63 10.57 5.54 10.54 5.51L10.22 5.16H10.45L10.54 5.28C10.72 5.46 11.02 5.45 11.2 5.27L11.29 5.17H11.69C11.71 5.17 11.77 5.22 11.77 5.22V5.46L11.72 5.45H11.36C11.25 5.45 11.15 5.55 11.15 5.66C11.15 5.77 11.24 5.87 11.36 5.87H11.72H11.77V6.02C11.63 6.23 11.53 6.44 11.32 6.44H10.38C10.38 6.44 10.38 6.44 10.38 6.43L9.94 5.99C9.76 5.81 9.46 5.81 9.28 5.99L8.86 6.42V6.43H8.6C8.34 6.43 8.11 6.64 8.11 6.89V7.81C8.11 8.07 8.34 8.26 8.6 8.26H9.5C9.84 8.4 10.07 8.61 10.22 8.95V10.63C10.22 10.89 10.39 11.07 10.64 11.07H11.36C11.62 11.07 11.76 10.89 11.76 10.63V9L12.65 8.14L12.68 8.12L12.7 8.11H12.73C12.8 8.03 12.88 7.92 12.88 7.8V6.89C12.88 6.71 12.72 6.57 12.57 6.43H13C13.01 6.71 13.21 6.85 13.46 6.85H13.88C13.96 7.22 14 7.61 14 8C14 11.31 11.31 14 8 14ZM12.54 9.73002C12.44 9.73002 12.33 9.81002 12.33 9.91002V10.48C12.33 10.58 12.44 10.66 12.54 10.66C12.64 10.66 12.75 10.58 12.75 10.48V9.91002C12.75 9.81002 12.64 9.73002 12.54 9.73002ZM8.37005 3.19005C8.37005 2.94005 8.17005 2.77005 7.91005 2.77005H7.37005C7.12005 2.77005 6.95005 2.95005 6.95005 3.20005C6.95005 3.23005 6.85005 3.24005 7.00005 3.28005V3.75006C7.00005 3.90006 7.06005 4.02006 7.21005 4.02006C7.36005 4.02006 7.42005 3.90006 7.42005 3.75006V3.61006H7.92005C8.16005 3.61006 8.37005 3.45006 8.37005 3.19005Z" fill="#9090A4"/>
</g>
</svg>
