<svg width="14" height="14" viewBox="0 0 14 14" fill="none" xmlns="http://www.w3.org/2000/svg">
<g id="&#240;&#159;&#148;&#187;Icon">
<path id="Shape" fill-rule="evenodd" clip-rule="evenodd" d="M13.125 0H4.375C3.89375 0 3.5 0.39375 3.5 0.875V2.625H5.25V1.75H12.25V7.875H11.375V9.625H13.125C13.6062 9.625 14 9.23125 14 8.75V0.875C14 0.39375 13.6062 0 13.125 0ZM9.625 3.5H0.875C0.39375 3.5 0 3.89375 0 4.375V13.125C0 13.6062 0.39375 14 0.875 14H9.625C10.1062 14 10.5 13.6062 10.5 13.125V4.375C10.5 3.89375 10.1062 3.5 9.625 3.5ZM8.75 12.25H1.75V5.25H8.75V12.25Z" fill="#0660C8"/>
</g>
</svg>
