<svg width="20" height="20" viewBox="0 0 20 20" fill="none" xmlns="http://www.w3.org/2000/svg">
<g id="Mobile-video">
<path id="Shape" fill-rule="evenodd" clip-rule="evenodd" d="M18.75 5C18.4 5 18.0875 5.1375 17.8625 5.3625L15 8.2375V5C15 4.3125 14.4375 3.75 13.75 3.75H1.25C0.5625 3.75 0 4.3125 0 5V15C0 15.6875 0.5625 16.25 1.25 16.25H13.75C14.4375 16.25 15 15.6875 15 15V11.7625L17.8625 14.625C18.0875 14.8625 18.4 15 18.75 15C19.4375 15 20 14.4375 20 13.75V6.25C20 5.5625 19.4375 5 18.75 5Z" fill="white"/>
</g>
</svg>
