<svg width="14" height="8" viewBox="0 0 14 8" fill="none" xmlns="http://www.w3.org/2000/svg">
<path id="Shape" fill-rule="evenodd" clip-rule="evenodd" d="M12 0.25C11.65 0.25 11.3375 0.3875 11.1125 0.6125L7 4.7375L2.8875 0.6125C2.6625 0.3875 2.35 0.25 2 0.25C1.3125 0.25 0.75 0.8125 0.75 1.5C0.75 1.85 0.8875 2.1625 1.1125 2.3875L6.1125 7.3875C6.3375 7.6125 6.65 7.75 7 7.75C7.35 7.75 7.6625 7.6125 7.8875 7.3875L12.8875 2.3875C13.1125 2.1625 13.25 1.85 13.25 1.5C13.25 0.8125 12.6875 0.25 12 0.25Z" fill="#05051E"/>
</svg>
