<svg width="16" height="16" viewBox="0 0 16 16" fill="none" xmlns="http://www.w3.org/2000/svg">
<g id="Studios">
<path id="Union" fill-rule="evenodd" clip-rule="evenodd" d="M8.00015 0C7.73574 0 7.47398 0.0663634 7.24036 0.194964C7.00653 0.323676 6.80708 0.511461 6.66517 0.743333L6.66334 0.746336L0.15693 11.462C0.0781697 11.5851 0.0256559 11.7267 0.00727577 11.8788C0.00238824 11.919 -1.86607e-05 11.9593 1.14358e-07 11.9995C1.14358e-07 11.9997 0 11.9998 0 12C0 12.7274 0.340669 13.3535 0.813795 13.843C1.28284 14.3283 1.92155 14.7256 2.65633 15.0405C4.12485 15.6698 6.04685 16 8 16C9.95315 16 11.8751 15.6698 13.3437 15.0405C14.0785 14.7256 14.7172 14.3283 15.1862 13.843C15.6527 13.3603 15.9905 12.7448 15.9998 12.0304C16.0043 11.8865 15.9778 11.7404 15.9179 11.6025C15.8988 11.5586 15.8768 11.5164 15.8519 11.4761L9.33696 0.746332L9.33512 0.743333C9.19322 0.511461 8.99376 0.323676 8.75994 0.194964C8.52631 0.0663634 8.26456 0 8.00015 0ZM13.9458 12.1903L8.00015 2.39821L2.05435 12.1906C2.09117 12.2621 2.15206 12.3498 2.25189 12.4531C2.47979 12.6889 2.8662 12.9545 3.44417 13.2022C4.60116 13.698 6.24012 14 8 14C9.75988 14 11.3988 13.698 12.5558 13.2022C13.1338 12.9545 13.5202 12.6889 13.7481 12.4531C13.8481 12.3497 13.909 12.2619 13.9458 12.1903Z" fill="#9090A4"/>
</g>
</svg>
