<svg width="16" height="16" viewBox="0 0 16 16" fill="none" xmlns="http://www.w3.org/2000/svg">
<g id="Style">
<path id="Shape" fill-rule="evenodd" clip-rule="evenodd" d="M14 14H2V2H10.76L12.76 2.50002e-08H1C0.45 2.50002e-08 0 0.45 0 1V15C0 15.55 0.45 16 1 16H15C15.55 16 16 15.55 16 15V6.24L14 8.24V14ZM15.4 0L9.70003 5.7L11.8 7.8L16 3.6V0H15.4ZM4 11.92C6.33 12.07 8.42 12.07 10.15 10.42C10.97 9.58997 10.97 8.16997 10.15 7.33997C9.7 6.95997 9.17 6.73997 8.65 6.73997C8.12 6.73997 7.6 6.95997 7.22 7.33997C6.4 8.24997 5.95 10.72 4 11.92Z" fill="#9090A4"/>
</g>
</svg>
