<svg width="14" height="14" viewBox="0 0 14 14" fill="none" xmlns="http://www.w3.org/2000/svg">
<g id="Thumbs-up">
<path id="Shape" fill-rule="evenodd" clip-rule="evenodd" d="M13.9913 8.41733C13.9213 7.90982 13.3525 7.57732 12.74 7.49857C12.6088 7.48107 12.46 7.46357 12.3113 7.45482C12.3638 7.44607 12.4075 7.44607 12.4513 7.43732C13.0725 7.36732 13.5275 7.02607 13.4575 6.51857C13.3875 6.01107 12.8188 5.67857 12.2063 5.59982C11.9088 5.56482 11.5763 5.53857 11.2175 5.52107C11.2175 5.52107 11.2175 5.52107 11.2088 5.52107C10.9988 5.51232 10.78 5.50357 10.5525 5.50357C10.1325 5.48607 9.58125 5.46857 9.16125 5.43357C8.84625 5.40732 8.8025 5.18857 8.8375 4.96982C9.14375 4.18232 9.31 3.29857 9.275 2.42357C9.24 1.67982 8.75 0.953574 8.04125 0.874824C7.455 0.813574 7.02625 1.21607 7.175 1.73232C7.665 3.42107 5.36375 5.42482 3.5 6.55357V11.8036C4.9525 12.7048 7.30625 13.1686 10.045 13.1161C10.2113 13.1161 10.3863 13.1073 10.5875 13.0986C10.6138 13.0986 10.64 13.0986 10.6663 13.0986C10.8588 13.0898 11.0688 13.0723 11.305 13.0548C11.9263 13.0023 12.6525 12.6086 12.6175 12.1011C12.5913 11.6548 12.2675 11.4098 11.8563 11.2873C12.0925 11.2698 12.3288 11.2523 12.5475 11.2348C13.1688 11.1823 13.6325 10.8411 13.5713 10.3248C13.5188 9.81732 12.9588 9.47607 12.3375 9.38857C12.32 9.38857 12.2938 9.37982 12.2763 9.37982C12.53 9.36232 12.775 9.35357 12.985 9.33607C13.6063 9.30982 14.0613 8.92482 13.9913 8.41733ZM1.75 6.12483H0V12.2498H1.75C2.23125 12.2498 2.625 11.8561 2.625 11.3748V6.99983C2.625 6.50983 2.23125 6.12483 1.75 6.12483Z" fill="#0660C8"/>
</g>
</svg>
