<svg width="57" height="12" viewBox="0 0 57 12" fill="none" xmlns="http://www.w3.org/2000/svg">
<g id="&#194;&#169; Brand" opacity="0.4">
<g id="layer1">
<g id="g24125">
<path id="path24127" d="M5.96526 9.2558C5.62678 9.48409 5.10745 9.66087 4.51974 9.67257C3.94245 9.68779 3.44168 9.5075 3.10783 9.18906C2.66037 8.75941 2.43085 8.01834 2.43085 6.99629C2.43085 6.00001 2.71254 4.31884 4.55683 4.18889C4.80722 4.17016 5.4784 4.11748 5.96526 4.1046V9.2558ZM5.96526 3.62396e-05V2.05817H4.66232C0.804487 2.05817 0 4.9686 0 7.06537C0 8.60019 0.463682 9.93248 1.29599 10.8175C2.01354 11.5727 2.97452 11.9766 4.07924 11.9766C4.81881 11.9766 5.44246 11.8372 5.96526 11.5586L5.97918 11.7693H8.52479V3.62396e-05H5.96526Z" fill="#05051E"/>
</g>
<g id="g24129">
<path id="path24131" d="M12.8797 5.53405C13.1394 4.60332 13.7769 4.00625 14.7982 4.00625C15.7487 4.00625 16.3979 4.67942 16.4756 5.53405H12.8797ZM18.976 5.57737C18.8786 4.47806 18.4787 3.54733 17.8272 2.89992C17.098 2.1729 16.0756 1.80178 14.7982 1.80178C13.3248 1.80178 12.1123 2.35319 11.287 3.39396C10.552 4.31767 10.1475 5.61015 10.1475 7.03609C10.1475 9.41618 11.4805 11.9707 15.2167 11.9707C16.6483 11.9707 18.0463 11.5223 18.8484 11.1184V8.73482C18.4022 8.98418 17.0355 9.72993 15.1691 9.69598C13.8001 9.67257 13.0629 8.92916 12.8322 7.61911H19.0003L19.0038 7.52311C19.0177 6.64507 19.0003 5.904 18.976 5.57737Z" fill="#05051E"/>
</g>
<g id="g24133">
<path id="path24135" d="M25.6855 1.82514C24.8578 1.82514 23.9443 2.13889 23.5919 2.27119L23.5803 2.05812H21.0312V11.7693H23.5919V4.49557C24.1449 4.14669 25.0015 4.00035 25.6947 4.16425C26.381 4.32698 26.7183 4.766 26.7183 6.02336V11.7693H29.272V5.64171C29.272 3.07431 28.1012 1.82514 25.6855 1.82514Z" fill="#05051E"/>
</g>
<g id="g24137">
<path id="path24139" d="M54.0258 2.05585V9.32957C53.481 9.68196 52.6185 9.82596 51.9253 9.66557C51.2402 9.50284 50.9041 9.06616 50.9041 7.80178V2.05585H48.3457V8.18577C48.3457 10.752 49.52 12 51.9323 12C52.7611 12 53.678 11.6898 54.0258 11.554L54.0409 11.767H56.5842V2.05585H54.0258Z" fill="#05051E"/>
</g>
<g id="g24141">
<path id="path24143" d="M33.9928 0.000135422H31.4355V8.42819C31.4355 9.58721 31.6349 10.3997 32.0604 10.9734C32.5611 11.6524 33.3795 11.979 34.5584 11.979C35.5055 11.979 36.4178 11.7694 36.951 11.5997V9.27463C36.6207 9.35892 35.6075 9.57902 35.021 9.57902C34.6489 9.57902 34.3869 9.50058 34.2258 9.33785C33.9928 9.09785 33.9928 8.68926 33.9928 8.2959V4.19368C34.9955 4.19368 36.2509 4.26392 36.951 4.34002V2.05827H33.9928V0.000135422Z" fill="#05051E"/>
</g>
<g id="g24145">
<path id="path24147" d="M43.4297 5.70035C42.8292 5.5903 42.1187 5.46269 41.7083 5.2344C41.5089 5.12435 41.4034 4.96865 41.4057 4.79655C41.4127 4.62797 41.5275 4.46524 41.6979 4.38094C42.07 4.17255 42.7458 4.07187 43.7728 4.26153C44.7593 4.44065 45.8536 4.82465 46.1921 4.96865V2.62485C45.0097 2.03247 43.9571 1.80183 42.7724 1.8194C41.6724 1.84047 40.7218 2.13081 40.0217 2.65646C39.2844 3.21958 38.8694 4.02153 38.8277 4.98035C38.7523 6.59244 39.7539 7.55712 42.0619 8.01019C42.5418 8.10619 43.2408 8.25019 43.5375 8.37546C43.8366 8.49487 44.0139 8.6939 44.0139 8.91985C44.0163 9.13643 43.8644 9.34014 43.6245 9.44316C43.1921 9.62579 42.4884 9.59887 42.041 9.55087C40.7195 9.41623 39.456 8.94443 38.9981 8.73956V11.1466C39.7794 11.547 41.0116 12.0094 42.4734 11.9883C44.1473 11.9544 46.2245 11.451 46.599 9.22189C46.7427 8.39419 46.5967 7.6461 46.177 7.05605C45.6647 6.34308 44.8752 5.9743 43.4297 5.70035Z" fill="#05051E"/>
</g>
</g>
</g>
</svg>
