<svg width="60" height="60" viewBox="0 0 60 60" fill="none" xmlns="http://www.w3.org/2000/svg">
<g id="&#240;&#159;&#150;&#188; Home Button">
<rect id="Rectangle 1" width="60" height="60" fill="#076CDF"/>
<path id="Shape" fill-rule="evenodd" clip-rule="evenodd" d="M22.5 32.5V33.75C22.5 33.75 22.5 34.2875 22.5 35V36.2375C22.5 37.4875 22.5 38.75 22.5 38.75C22.5 39.4375 23.0625 40 23.75 40H27.5V33.75H32.5V40H36.25C36.9375 40 37.5 39.4375 37.5 38.75V32.5L30 25L22.5 32.5ZM39.6375 29.1125L37.5 26.9875V22.5C37.5 21.8125 36.9375 21.25 36.25 21.25C35.5625 21.25 35 21.8125 35 22.5V24.4875L30.8875 20.3625C30.6625 20.1375 30.35 20 30 20C29.65 20 29.3375 20.1375 29.1125 20.3625L20.3625 29.1125C20.1375 29.3375 20 29.65 20 30C20 30.6875 20.5625 31.25 21.25 31.25C21.6 31.25 21.9125 31.1125 22.1375 30.8875L30 23.0125L37.8625 30.875C38.0875 31.1125 38.4 31.25 38.75 31.25C39.4375 31.25 40 30.6875 40 30C40 29.65 39.8625 29.3375 39.6375 29.1125Z" fill="white"/>
</g>
</svg>
